<?xml version="1.0" encoding="UTF-8"?>
<svg width="46px" height="46px" viewBox="0 0 46 46" version="1.1" xmlns="http://www.w3.org/2000/svg" xmlns:xlink="http://www.w3.org/1999/xlink">
    <!-- Generator: Sketch 39.1 (31720) - http://www.bohemiancoding.com/sketch -->
    <title>Page 1</title>
    <desc>Created with Sketch.</desc>
    <defs></defs>
    <g id="Symbols" stroke="none" stroke-width="1" fill="none" fill-rule="evenodd">
        <g id="me_list" transform="translate(-48.000000, -373.000000)" fill="#08CE88">
            <g id="Group-8">
                <g id="Group-7" transform="translate(12.000000, 101.000000)">
                    <g id="Group-6-Copy-6" transform="translate(0.000000, 244.000000)">
                        <path d="M70.5539906,51 C70.5539906,51.6478873 70.3200325,52.1877934 69.8521161,52.6197183 C69.3841929,53.0516432 68.8262911,53.2676056 68.1784038,53.2676056 L45.1784038,53.2676056 L36,62.5539906 L36,30.2676056 C36,29.6197183 36.2159603,29.0798122 36.6478873,28.6478873 C37.0798143,28.2159624 37.6197149,28 38.2676056,28 L68.1784038,28 C68.8262911,28 69.3841929,28.2159624 69.8521161,28.6478873 C70.3200325,29.0798122 70.5539906,29.6197183 70.5539906,30.2676056 L70.5539906,51 L70.5539906,51 Z M79.7323944,37.1784038 C80.3802817,37.1784038 80.9201878,37.3943662 81.3521127,37.8262911 C81.7840376,38.258216 82,38.7981221 82,39.4460094 L82,74 L72.8215962,64.8215962 L47.4460094,64.8215962 C46.7981221,64.8215962 46.258216,64.6056338 45.8262911,64.1737089 C45.3943662,63.741784 45.1784038,63.2018779 45.1784038,62.5539906 L45.1784038,57.9107981 L75.0892019,57.9107981 L75.0892019,37.1784038 L79.7323944,37.1784038 L79.7323944,37.1784038 Z" id="Page-1"></path>
                    </g>
                </g>
            </g>
        </g>
    </g>
</svg>
